<svg width="801" height="2522" xmlns="http://www.w3.org/2000/svg" xmlns:xlink="http://www.w3.org/1999/xlink" xml:space="preserve" overflow="hidden"><defs><clipPath id="clip0"><rect x="713" y="60" width="801" height="2522"/></clipPath></defs><g clip-path="url(#clip0)" transform="translate(-713 -60)"><path d="M1008.21 197.907C1004.51 154.367 1023.56 114.27 1050.76 108.348 1061.79 105.948 1072.99 109.535 1082.59 118.536 1092.76 87.8507 1116.53 76.1885 1135.68 92.4883 1139.03 95.3385 1142.1 98.9509 1144.8 103.213 1152.72 77.777 1172.02 67.4429 1187.9 80.1313 1192.29 83.6431 1196.13 88.7221 1199.1 94.978 1211.87 70.9236 1234.43 67.9523 1249.49 88.3414 1255.83 96.9109 1260.09 108.73 1261.56 121.774 1282.48 130.91 1294.82 165.516 1289.13 199.07 1288.65 201.89 1288.05 204.654 1287.33 207.341 1304.11 242.303 1300 292.414 1278.16 319.267 1271.36 327.626 1263.33 333.038 1254.84 334.98 1254.65 372.594 1235.43 402.841 1211.91 402.539 1204.06 402.439 1196.37 398.863 1189.7 392.208 1181.75 434.377 1154 458.212 1127.73 445.444 1116.72 440.093 1107.21 428.777 1100.81 413.426 1073.92 439.397 1039 425.427 1022.83 382.222 1022.63 381.678 1022.43 381.13 1022.23 380.578 1004.63 383.877 988.68 363.769 986.614 335.666 985.512 320.686 988.602 305.693 995.058 294.682 979.815 280.317 974.695 248.788 983.621 224.259 988.771 210.109 997.803 200.754 1007.94 199.072Z" stroke="#322110" stroke-width="6.875" stroke-miterlimit="8" fill="#322110" fill-rule="evenodd"/><path d="M1014.05 300.125C1007.54 300.941 1001.03 298.533 995.399 293.225M1030.5 375.635C1027.88 377.303 1025.14 378.413 1022.34 378.937M1100.8 411.918C1098.83 407.192 1097.18 402.142 1095.88 396.854M1191.7 374.354C1191.41 379.959 1190.75 385.5 1189.74 390.883M1230.73 272.222C1245.48 283.717 1254.79 307.75 1254.66 333.998M1287.18 206.426C1284.79 215.364 1281.14 223.293 1276.52 229.59M1261.61 120.475C1262.01 124.085 1262.2 127.748 1262.17 131.415M1193.55 107.714C1194.93 102.667 1196.77 97.9676 1199.01 93.7623M1142.48 114.363C1143.05 110.192 1143.94 106.15 1145.13 102.331M1082.56 118.449C1086.03 121.706 1089.24 125.626 1092.12 130.123M1009.88 210.192C1009.12 206.175 1008.56 202.068 1008.21 197.91" stroke="#322110" stroke-width="6.875" stroke-miterlimit="8" fill="none" fill-rule="evenodd"/><path d="M911.208 185.244C907.508 142.286 926.561 102.725 953.764 96.8819 964.787 94.5142 975.995 98.0537 985.593 106.934 995.764 76.6588 1019.53 65.1526 1038.68 81.2344 1042.03 84.0465 1045.1 87.6106 1047.8 91.8158 1055.72 66.7198 1075.02 56.5239 1090.9 69.0426 1095.29 72.5075 1099.13 77.5186 1102.1 83.6908 1114.87 59.958 1137.43 57.0264 1152.49 77.143 1158.83 85.5979 1163.09 97.2595 1164.56 110.128 1185.48 119.142 1197.82 153.286 1192.13 186.391 1191.65 189.174 1191.05 191.901 1190.33 194.552 1207.11 229.046 1203 278.487 1181.16 304.981 1174.36 313.228 1166.32 318.568 1157.84 320.484 1157.65 357.595 1138.43 387.438 1114.91 387.14 1107.06 387.041 1099.37 383.513 1092.7 376.947 1084.75 418.553 1057 442.069 1030.73 429.471 1019.72 424.192 1010.21 413.027 1003.81 397.881 976.915 423.505 942.001 409.722 925.831 367.095 925.628 366.557 925.427 366.017 925.231 365.473 907.626 368.727 891.68 348.888 889.614 321.161 888.512 306.381 891.602 291.589 898.058 280.725 882.815 266.552 877.695 235.445 886.621 211.244 891.771 197.282 900.803 188.053 910.94 186.393Z" stroke="#322110" stroke-width="6.875" stroke-miterlimit="8" fill="#322110" fill-rule="evenodd"/><path d="M917.046 286.095C910.538 286.9 904.031 284.524 898.399 279.287M933.498 360.596C930.881 362.241 928.138 363.336 925.339 363.854M1003.8 396.394C1001.83 391.731 1000.18 386.748 998.881 381.531M1094.7 359.331C1094.41 364.862 1093.75 370.328 1092.74 375.64M1133.73 258.565C1148.48 269.907 1157.79 293.618 1157.66 319.516M1190.18 193.649C1187.79 202.467 1184.14 210.29 1179.52 216.504M1164.61 108.847C1165.01 112.408 1165.2 116.023 1165.17 119.641M1096.55 96.2567C1097.93 91.2771 1099.77 86.6405 1102.01 82.4914M1045.48 102.817C1046.05 98.7015 1046.94 94.7137 1048.13 90.9451M985.555 106.848C989.028 110.062 992.241 113.929 995.124 118.366M912.879 197.364C912.121 193.401 911.563 189.349 911.209 185.247" stroke="#322110" stroke-width="6.875" stroke-miterlimit="8" fill="none" fill-rule="evenodd"/><path d="M873 1276.04C873 1253.93 889.852 1236 910.64 1236L1061.2 1236C1081.98 1236 1098.84 1253.93 1098.84 1276.04 1098.66 1403.36 1105.17 1511.46 1105 1638.78 1105.17 1931.1 1098.66 2242.63 1098.84 2534.96 1098.84 2557.07 1081.98 2575 1061.2 2575L910.64 2575C889.852 2575 873 2557.07 873 2534.96L873 1276.04Z" fill="#0B3041" fill-rule="evenodd"/><path d="M1119.7 1278.07C1119.7 1255.94 1136.51 1238 1157.25 1238L1307.45 1238C1328.19 1238 1345 1255.94 1345 1278.07L1345 2537.93C1345 2560.06 1328.19 2578 1307.45 2578L1157.25 2578C1136.51 2578 1119.7 2560.06 1119.7 2537.93 1119.02 2254.01 1111.67 1960.12 1111 1676.21 1111.67 1540.17 1119.02 1414.11 1119.7 1278.07Z" fill="#0B3041" fill-rule="evenodd"/><path d="M1015 1301C1015 1281.12 1031.12 1265 1051 1265L1195 1265C1214.88 1265 1231 1281.12 1231 1301L1231 1598C1231 1617.88 1214.88 1634 1195 1634L1051 1634C1031.12 1634 1015 1617.88 1015 1598Z" fill="#0B3041" fill-rule="evenodd"/><path d="M1130.5 2578.5 1130.5 2523C1130.5 2492.35 1175.5 2467.5 1231 2467.5 1286.5 2467.5 1331.5 2492.35 1331.5 2523L1331.5 2578.5Z" stroke="#644300" stroke-width="6.875" stroke-miterlimit="8" fill="#644300" fill-rule="evenodd"/><path d="M885.5 2578.5 885.5 2522.5C885.5 2491.57 930.495 2466.5 986 2466.5 1041.5 2466.5 1086.5 2491.57 1086.5 2522.5L1086.5 2578.5Z" stroke="#644300" stroke-width="6.875" stroke-miterlimit="8" fill="#644300" fill-rule="evenodd"/><path d="M873.5 650.266C873.5 645.425 877.425 641.5 882.266 641.5L1347.73 641.5C1352.57 641.5 1356.5 645.425 1356.5 650.266L1356.5 1331.73C1356.5 1336.58 1352.57 1340.5 1347.73 1340.5L882.266 1340.5C877.425 1340.5 873.5 1336.58 873.5 1331.73Z" stroke="#DCEAF7" stroke-width="6.875" stroke-miterlimit="8" fill="#DCEAF7" fill-rule="evenodd"/><path d="M963.5 642.5 1107 414.5 1107 414.5 1250.5 642.5Z" stroke="#CF9F6F" stroke-width="6.875" stroke-miterlimit="8" fill="#CF9F6F" fill-rule="evenodd"/><path d="M933 333C933 208.184 1010.01 107 1105 107 1199.99 107 1277 208.184 1277 333 1277 457.816 1199.99 559 1105 559 1010.01 559 933 457.816 933 333Z" fill="#CF9F6F" fill-rule="evenodd"/><path d="M1060.38 341.828C1070.96 356.044 1062.59 369.455 1052.8 372.862 1043.01 376.268 1012.38 376.051 1001.65 362.267 993.301 351.548 981.086 338.622 1000.79 331.603 1020.48 324.585 1049.8 327.612 1060.38 341.828Z" fill="#FFFFFF" fill-rule="evenodd"/><path d="M1011 350.5C1011 341.387 1018.83 334 1028.5 334 1038.16 334 1046 341.387 1046 350.5 1046 359.613 1038.16 367 1028.5 367 1018.83 367 1011 359.613 1011 350.5Z" fill="#422C00" fill-rule="evenodd"/><path d="M46.2337 63.9312C37.9964 79.6218 22.283 77.8772 14.9764 70.527 7.66985 63.1769-5.38804 35.4717 2.39408 19.8306 8.44605 7.66685 14.8131-8.93889 29.6649 5.78322 44.5168 20.5053 54.4711 48.2407 46.2337 63.9312Z" fill="#FFFFFF" fill-rule="evenodd" transform="matrix(-0.432728 -0.901525 -0.901525 0.432728 1224.93 354.405)"/><path d="M1157 349.5C1157 340.387 1164.84 333 1174.5 333 1184.17 333 1192 340.387 1192 349.5 1192 358.613 1184.17 366 1174.5 366 1164.84 366 1157 358.613 1157 349.5Z" fill="#422C00" fill-rule="evenodd"/><path d="M1157.57 306.641C1180.47 305.287 1206.27 308.124 1229.39 314.537" stroke="#422C00" stroke-width="11.4583" stroke-miterlimit="8" fill="none" fill-rule="evenodd"/><path d="M1087.68 410.705C1073.6 413.716 1089.34 388 1095.76 388L1115.04 388C1121.47 388 1137.64 414.038 1123.13 410.705 1108.61 407.372 1111.44 410.691 1105.54 410.691 1099.63 410.691 1101.76 407.695 1087.68 410.705Z" stroke="#C28100" stroke-width="2.29167" stroke-miterlimit="8" fill="#CF9F6F" fill-rule="evenodd"/><path d="M1094 382.333C1094 381.045 1095.04 380 1096.33 380L1113.67 380C1114.96 380 1116 381.045 1116 382.333L1116 391.667C1116 392.955 1114.96 394 1113.67 394L1096.33 394C1095.04 394 1094 392.955 1094 391.667Z" fill="#CF9F6F" fill-rule="evenodd"/><path d="M53.3047 3.94362C76.569-0.669263 103.484-1.26114 127.853 2.30429" stroke="#422C00" stroke-width="11.4583" stroke-miterlimit="8" fill="none" fill-rule="evenodd" transform="matrix(-0.990671 0.136272 0.136272 0.990671 1097.61 297.082)"/><path d="M1163.66 443.442C1164.55 473.659 1138.95 498.926 1106.49 499.879 1074.03 500.832 1046.99 477.108 1046.11 446.891 1071.34 476.394 1117.57 481.166 1149.37 457.551 1154.82 453.5 1159.64 448.749 1163.66 443.442Z" fill="#CE8068" fill-rule="evenodd"/><path d="M1153.03 454.695C1153.19 467.085 1131.31 477.41 1104.16 477.758 1077.01 478.105 1054.87 468.342 1054.71 455.952 1068.74 468.165 1102.06 472.651 1129.13 465.973 1139.45 463.429 1147.81 459.482 1153.03 454.695Z" fill="#FFFFFF" fill-rule="evenodd"/><path d="M1248.56 363.288C1252.91 339.461 1268.17 322.288 1282.65 324.932 1297.13 327.575 1305.34 349.034 1300.99 372.861 1296.64 396.687 1281.38 413.86 1266.9 411.216 1252.42 408.573 1244.21 387.114 1248.56 363.288Z" fill="#CF9F6F" fill-rule="evenodd"/><path d="M0 43.8553C-3.39305e-15 19.6347 11.9321-5.58336e-15 26.6512-1.11667e-14 41.3702-2.23335e-14 53.3024 19.6347 53.3024 43.8553 53.3024 68.0759 41.3702 87.7106 26.6512 87.7106 11.9321 87.7106-1.69653e-14 68.0759 0 43.8553Z" fill="#CF9F6F" fill-rule="evenodd" transform="matrix(-0.98374 0.179599 0.179599 0.98374 953.391 323.396)"/><path d="M0 0 120.372 0C158.557 10.8805 210.48 18.2535 230.542 36.5868 250.604 54.9201 242.896 89.1957 240.744 110 238.593 130.804 227.415 146.831 217.632 161.412 207.849 175.993 198.257 187.723 182.047 197.487 165.837 207.252 151.14 214.798 120.372 220L0 220 0 0Z" stroke="#DCEAF7" stroke-width="6.875" stroke-miterlimit="8" fill="#DCEAF7" fill-rule="evenodd" transform="matrix(-6.12323e-17 -1 -1 6.12323e-17 1011.5 862.5)"/><path d="M1216.5 858.5 1216.5 738.39C1227.38 700.289 1226.18 644.635 1253.09 628.461 1279.99 612.286 1351.1 633.278 1377.91 641.343 1404.73 649.408 1404.22 660.675 1413.99 676.85 1423.75 693.024 1431.3 707.69 1436.5 738.39L1436.5 858.5 1216.5 858.5Z" stroke="#DCEAF7" stroke-width="6.875" stroke-miterlimit="8" fill="#DCEAF7" fill-rule="evenodd"/><path d="M1065 680.231 1108 647 1151 680.231 1134.58 734 1081.42 734Z" fill="#0B3041" fill-rule="evenodd"/><path d="M1045 1238 1079.24 727 1136.76 727 1171 1238Z" fill="#0B3041" fill-rule="evenodd"/><path d="M1171 1238 1108 1333 1045 1238Z" fill="#0B3041" fill-rule="evenodd"/><path d="M1001.48 574.761 1111.24 648.086 1068.09 697.533 961.177 632.228 1001.48 574.761Z" fill="#C9DFF3" fill-rule="evenodd"/><path d="M0 128.634 29.613 0 84.3875 28.5657 68.0264 145.924 0 128.634Z" fill="#C9DFF3" fill-rule="evenodd" transform="matrix(0.354792 0.934945 0.934945 -0.354792 1091.14 621.983)"/><path d="M929.738 222.688C918.231 208.199 925.145 185.443 945.181 171.861 953.299 166.357 962.747 162.982 972.013 162.276 973.866 146.709 990.086 132.452 1008.24 130.433 1011.42 130.08 1014.53 130.123 1017.48 130.561 1018.62 117.871 1031.61 105.978 1046.5 103.998 1050.63 103.45 1054.62 103.714 1058.18 104.771 1063.37 90.5586 1080.37 80.0094 1096.15 81.2083 1102.79 81.7122 1108.45 84.2784 1112.18 88.467 1130.3 83.066 1146.78 90.6433 1148.98 105.391 1149.17 106.631 1149.24 107.901 1149.22 109.192 1169.22 115.041 1175.94 135.223 1164.23 154.269 1160.58 160.198 1155.39 165.558 1149.16 169.83 1156.46 183.766 1147.47 202.963 1129.07 212.707 1122.93 215.963 1116.23 217.867 1109.71 218.208 1111.86 237.077 1094.95 257.485 1071.94 263.791 1062.3 266.434 1052.64 266.252 1044.61 263.276 1028.79 284.117 998.799 293.601 977.637 284.461 977.371 284.346 977.106 284.228 976.844 284.107 963.772 292.7 947.358 291.975 940.182 282.488 936.357 277.431 935.796 270.613 938.649 263.851 923.921 264.947 913.686 255.477 915.788 242.7 917.001 235.329 922.19 228.097 929.76 223.23Z" stroke="#322110" stroke-width="6.875" stroke-miterlimit="8" fill="#322110" fill-rule="evenodd"/><path d="M954.531 257.899C949.619 260.926 944.069 262.766 938.627 263.171M982.31 278.822C980.6 280.533 978.681 282.091 976.603 283.457M1044.3 262.728C1041.83 261.812 1039.55 260.642 1037.49 259.239M1107.73 210.795C1108.62 212.981 1109.2 215.298 1109.48 217.707M1117.94 156.814C1131.71 154.866 1143.73 159.818 1148.83 169.542M1148.92 108.918C1148.83 113.212 1147.55 117.661 1145.2 121.918M1111.96 87.9703C1112.99 89.1294 1113.87 90.4 1114.57 91.7648M1056.37 111.792C1056.45 109.35 1056.96 106.848 1057.87 104.364M1017.88 135.64C1017.49 133.866 1017.39 132.005 1017.56 130.1M971.966 162.259C975.319 162.004 978.6 162.101 981.738 162.55M933.473 226.514C932.087 225.351 930.838 224.072 929.74 222.689" stroke="#322110" stroke-width="6.875" stroke-miterlimit="8" fill="none" fill-rule="evenodd"/><path d="M1082.67 143.756C1080.85 130.717 1090.25 118.709 1103.68 116.936 1109.13 116.217 1114.66 117.291 1119.4 119.987 1124.42 110.798 1136.15 107.305 1145.61 112.186 1147.26 113.04 1148.78 114.122 1150.11 115.398 1154.02 107.781 1163.55 104.686 1171.39 108.486 1173.56 109.538 1175.45 111.059 1176.92 112.932 1183.22 105.729 1194.36 104.839 1201.8 110.945 1204.92 113.511 1207.03 117.05 1207.76 120.956 1218.09 123.692 1224.18 134.056 1221.37 144.104 1221.13 144.949 1220.83 145.776 1220.48 146.581 1228.76 157.051 1226.73 172.057 1215.95 180.099 1212.59 182.602 1208.63 184.223 1204.44 184.804 1204.34 196.068 1194.86 205.126 1183.24 205.036 1179.37 205.006 1175.57 203.935 1172.28 201.942 1168.35 214.57 1154.65 221.708 1141.68 217.884 1136.25 216.282 1131.55 212.893 1128.39 208.296 1115.11 216.074 1097.88 211.89 1089.89 198.952 1089.79 198.789 1089.69 198.625 1089.6 198.459 1080.91 199.447 1073.03 193.426 1072.01 185.01 1071.47 180.524 1072.99 176.034 1076.18 172.736 1068.66 168.435 1066.13 158.993 1070.53 151.647 1073.08 147.41 1077.54 144.608 1082.54 144.104Z" stroke="#322110" stroke-width="6.875" stroke-miterlimit="8" fill="#322110" fill-rule="evenodd"/><path d="M1085.56 174.366C1082.34 174.611 1079.13 173.89 1076.35 172.3M1093.68 196.979C1092.39 197.478 1091.03 197.811 1089.65 197.968M1128.39 207.845C1127.41 206.429 1126.6 204.917 1125.96 203.333M1173.26 196.595C1173.12 198.274 1172.8 199.933 1172.3 201.545M1192.53 166.01C1199.82 169.453 1204.42 176.65 1204.35 184.51M1220.4 146.307C1219.23 148.983 1217.42 151.358 1215.14 153.244M1207.78 120.567C1207.98 121.648 1208.07 122.745 1208.06 123.844M1174.18 116.746C1174.86 115.235 1175.77 113.827 1176.87 112.568M1148.97 118.737C1149.25 117.488 1149.68 116.278 1150.27 115.134M1119.38 119.961C1121.09 120.936 1122.68 122.11 1124.1 123.457M1083.5 147.435C1083.12 146.232 1082.85 145.002 1082.67 143.757" stroke="#322110" stroke-width="6.875" stroke-miterlimit="8" fill="none" fill-rule="evenodd"/><path d="M1208.76 152.44C1209.96 149.679 1216.45 156.882 1223.27 168.528 1226.03 173.247 1228.55 178.205 1230.43 182.608 1234.34 186.207 1240.61 196.21 1244.42 204.95 1245.09 206.479 1245.65 207.908 1246.1 209.193 1249.22 211.955 1254.35 220.052 1257.55 227.279 1258.44 229.279 1259.12 231.078 1259.53 232.536 1263.75 237.437 1269.31 247.147 1271.95 254.224 1273.06 257.198 1273.52 259.363 1273.25 260.347 1277.84 269.667 1279.14 275.939 1276.16 274.358 1275.91 274.225 1275.64 274.038 1275.33 273.798 1277.69 282.005 1274.3 281.553 1267.77 272.787 1265.73 270.059 1263.54 266.718 1261.41 263.087 1259.56 264.003 1253.5 256.467 1247.87 246.255 1245.98 242.843 1244.31 239.413 1243.03 236.344 1239.1 234.012 1231.29 222.606 1225.59 210.868 1223.2 205.949 1221.46 201.521 1220.66 198.339 1212.96 187.357 1205.24 171.838 1203.43 163.675 1203.41 163.572 1203.39 163.471 1203.37 163.371 1198.98 155.82 1196.12 148.368 1196.97 146.726 1197.42 145.85 1198.88 146.793 1200.96 149.302 1197.99 142.307 1198.27 139.249 1201.59 142.471 1203.5 144.33 1206.12 148.001 1208.64 152.354Z" stroke="#322110" stroke-width="6.875" stroke-miterlimit="8" fill="#322110" fill-rule="evenodd"/><path d="M1205.26 157.685C1203.66 154.883 1202.21 151.996 1201.11 149.411M1205.59 166.827C1204.88 165.736 1204.17 164.575 1203.47 163.375M1220.73 198.291C1220.49 197.312 1220.33 196.463 1220.27 195.759M1244.36 236.736C1244.02 236.759 1243.6 236.621 1243.1 236.323M1258.63 250.96C1261.62 257.667 1262.71 262.345 1261.42 262.984M1275.34 273.708C1274.34 272.909 1273.08 271.536 1271.67 269.699M1273.32 260.332C1273.25 260.604 1273.12 260.783 1272.93 260.866M1257.59 230.462C1258.16 230.931 1258.83 231.604 1259.57 232.461M1245.01 208.483C1245.34 208.618 1245.75 208.896 1246.22 209.311M1230.42 182.59C1231.1 184.183 1231.68 185.681 1232.16 187.051M1208.57 153.491C1208.58 153.055 1208.64 152.704 1208.76 152.44" stroke="#322110" stroke-width="6.875" stroke-miterlimit="8" fill="none" fill-rule="evenodd"/><path d="M1477.29 837.653C1495.49 893.132 1501.26 935.618 1507.73 973.79 1514.2 1011.96 1506.53 1045.02 1500.72 1064.89 1494.91 1084.75 1489.7 1096.61 1472.89 1092.99 1456.09 1089.38 1422.38 1080.62 1399.88 1043.19 1377.38 1005.77 1379.74 928.388 1337.89 868.451 1321.84 804.545 1264.83 695.359 1276.91 660.364 1273.69 620.437 1264.69 627.254 1284.96 624.013 1305.23 620.771 1366.49 605.309 1398.54 640.916 1430.6 676.522 1459.09 782.174 1477.29 837.653Z" stroke="#DCEAF7" stroke-width="6.875" stroke-miterlimit="8" fill="#DCEAF7" fill-rule="evenodd"/><path d="M1.60395 249.098C-2.51426 190.855 2.24449 148.244 5.28047 109.646 8.31645 71.0487 23.8227 40.8626 34.2994 23.0119 44.7762 5.16121 52.7247-5.06288 68.1418 2.54262 83.559 10.1481 114.109 26.8627 126.801 68.6436 139.494 110.424 118.335 184.894 144.3 253.228 144.286 319.119 172.944 438.913 152.69 469.904 146.078 509.411 156.47 504.995 136.02 503.195 115.57 501.394 52.3916 501.449 29.989 459.1 7.58646 416.751 5.72217 307.34 1.60395 249.098Z" stroke="#DCEAF7" stroke-width="6.875" stroke-miterlimit="8" fill="#DCEAF7" fill-rule="evenodd" transform="matrix(0.969802 0.243894 0.243894 -0.969802 687.927 1081.19)"/><path d="M892.823 1460.2C894.523 1466.42 920.682 1516.3 924.184 1529 927.686 1541.7 919.248 1536.89 913.833 1536.4 908.417 1535.91 884.537 1492.04 877.125 1485.84 869.714 1479.63 868.073 1480.04 868.895 1484.93 869.718 1489.81 881.941 1509.47 882.057 1515.16 882.172 1520.85 879.557 1531.27 869.592 1519.07 859.627 1506.87 834.302 1478.78 825.236 1452.93 816.17 1427.09 812.686 1393.62 815.199 1364 817.714 1334.37 852.831 1339.56 877.422 1347.64 902.012 1355.72 949.372 1399.02 962.738 1412.48 976.104 1425.95 960.391 1425.16 957.621 1428.45 954.851 1431.75 940.966 1424.87 938.113 1422.14 935.261 1419.4 934.242 1400.81 937.959 1412.63 923.28 1416.27 1007.55 1509.82 985.532 1517.05 972.942 1523.16 925.164 1443.95 919.248 1448.8 913.273 1445.79 922.761 1449.01 927.91 1461.48 933.06 1473.96 967.213 1525.07 971.64 1538.56 976.066 1552.04 959.944 1544.98 954.474 1542.39 949.005 1539.8 945.19 1529.72 938.825 1523.02 932.46 1516.33 921.956 1500.93 913.984 1491.67 904.43 1481.1 891.124 1453.97 892.823 1460.2Z" stroke="#CF9F6F" stroke-width="6.875" stroke-miterlimit="8" fill="#CF9F6F" fill-rule="evenodd"/><path d="M852.177 1170.77C867.288 1231.68 897.838 1318.77 893.56 1355.57L826.505 1391.56C808.359 1393.7 799.75 1399.49 784.682 1368.41 769.614 1337.32 746.638 1262.21 736.099 1205.05 725.56 1147.89 711.344 1055.32 721.447 1025.45 731.55 995.578 781.106 965.83 802.894 990.049 824.682 1014.27 837.066 1109.85 852.177 1170.77Z" stroke="#DCEAF7" stroke-width="6.875" stroke-miterlimit="8" fill="#DCEAF7" fill-rule="evenodd"/><path d="M105.64 62.1173C99.1986 61.82 43.6891 71.3613 30.5266 70.7848 17.3641 70.2083 24.532 63.6579 26.6651 58.6563 28.7981 53.6546 77.8883 44.4326 86.0727 39.2903 94.2571 34.148 94.3746 32.4607 89.4717 31.7396 84.5687 31.0185 62.1071 36.6007 56.6569 34.9595 51.2068 33.3184 42.0965 27.6237 56.7726 21.8969 71.4486 16.1701 105.968 0.717109 133.349 0.0441916 160.73-0.628725 193.641 6.35354 221.056 17.8614 248.472 29.3713 232.728 61.1872 217.472 82.0979 202.216 103.009 146.449 134.748 129.522 143.321 112.594 151.894 118.189 137.189 115.906 133.539 113.622 129.889 124.433 118.793 127.915 116.921 131.397 115.049 149.395 119.799 137.005 119.699 138.065 104.613 23.1216 156.008 23.0204 132.834 21.0791 118.974 111.149 97.8883 108.348 90.7654 113.058 86.0088 107.076 94.0457 93.6202 95.1063 80.1649 96.1669 21.0193 112.934 6.82693 112.996-7.36549 113.058 4.31621 99.891 8.46285 95.4839 12.6095 91.0768 23.375 90.5485 31.7048 86.5532 40.0347 82.5579 57.9171 77.3011 69.1788 72.5646 82.1823 66.7293 112.083 62.4146 105.64 62.1173Z" stroke="#CF9F6F" stroke-width="6.875" stroke-miterlimit="8" fill="#CF9F6F" fill-rule="evenodd" transform="matrix(0.307719 -0.951477 -0.951477 -0.307719 1353.47 1579.11)"/><path d="M5.01494 207.379C5.6041 144.616-2.22004 52.6634 11.1174 18.1003L85.0392 0C103.145 2.46158 112.927-0.994409 119.75 32.8691 126.574 66.7325 130.055 145.201 125.979 203.181 121.902 261.16 112.538 354.345 95.2916 380.746 78.0452 407.148 22.6288 423.571 7.58282 394.677-7.4632 365.782 4.42579 270.142 5.01494 207.379Z" stroke="#DCEAF7" stroke-width="6.875" stroke-miterlimit="8" fill="#DCEAF7" fill-rule="evenodd" transform="matrix(0.968284 0.249852 0.249852 -0.968284 1310.85 1369.6)"/></g></svg>